<svg id="svg" version="1.1" viewBox="0 0 300 148.97680763983632" width="300" height="148.97680763983632"
     xmlns="http://www.w3.org/2000/svg">
    <svg xmlns="http://www.w3.org/2000/svg">
        <defs>
            <clipPath id="clip-1">
                <rect x="0" y="0" transform="scale(0.14648,0.14649)" width="2048" height="1017" fill="none"/>
            </clipPath>
        </defs>
        <g clip-path="url(#clip-1)" fill="none" fill-rule="nonzero" stroke="none" stroke-width="1" stroke-linecap="butt"
           stroke-linejoin="miter" stroke-miterlimit="10" stroke-dasharray="" stroke-dashoffset="0" font-family="none"
           font-size="none" style="mix-blend-mode: normal">
            <path d="M0,0h300v148.97681h-300z" fill="#ffffff"/>
            <path d="M86.98184,24.34929c0.9041,-0.0397 2.09531,-0.03281 2.91284,0.3816c2.3603,1.19694 4.75898,2.65097 7.05146,3.98224l12.97134,7.52794l14.30288,8.29861c2.76899,1.60813 5.86567,3.22549 8.41172,5.1742c0.88345,0.67618 1.25361,1.22653 1.65161,2.26996c0.32329,0.86661 0.52119,1.77512 0.5874,2.6977c0.27378,3.42969 0.14004,9.03046 0.21724,12.64941l0.16128,10.46163c0.03135,2.01932 0.5209,6.36953 -0.73901,7.89416c-1.69482,2.0511 -5.51558,-0.80743 -7.16265,-1.75798l-5.879,-3.34751l-21.49585,-12.16937c-3.23789,-1.83665 -8.32617,-4.94348 -11.51807,-6.42358c-2.16196,-0.10869 -4.05967,1.37009 -5.92119,2.43226l-7.22886,4.13033l-22.77334,12.96992c-2.8333,1.62263 -5.94668,3.62715 -8.96689,4.8613c-0.22192,0.09068 -0.8606,0.07734 -1.10874,0.02651c-3.09551,-0.63268 -2.4334,-4.33 -2.45024,-6.65488c0.01113,-1.61692 0.03003,-3.11299 0.02329,-4.67629l-0.03208,-13.567c-0.00278,-2.41996 -0.06885,-4.83552 0.06826,-7.25357c0.22529,-3.97315 3.23496,-5.13172 6.22588,-6.82759c1.10596,-0.62711 2.21777,-1.29509 3.31978,-1.93743l14.30508,-8.32659l13.42852,-7.81227c2.24648,-1.30578 7.37036,-4.60715 9.63735,-5.00369z"
                  fill="#93d250"/>
            <path d="M83.17573,71.49847c0.41704,0.06665 0.85488,0.19087 1.23384,0.37911c0.59912,0.29781 0.98232,0.84684 1.17422,1.47556c0.41235,1.3509 0.13696,11.96136 0.13784,14.50627l0.01406,20.85617c0.00337,3.64576 0.00938,7.3006 -0.0022,10.94606c-0.00732,0.59371 -0.03574,1.08459 -0.27627,1.63025c-0.34058,0.91173 -1.9894,1.72327 -2.89028,1.28234c-2.77412,-1.35793 -5.57139,-3.07827 -8.24985,-4.62985l-16.54365,-9.554l-10.35396,-5.96156c-1.37256,-0.79147 -5.8604,-2.99418 -6.58755,-4.61154c-0.45088,-1.00314 0.421,-2.39872 1.42661,-2.99345c2.38755,-1.41198 4.84878,-2.82851 7.28086,-4.23258l13.55024,-7.82018l11.70762,-6.75537c1.59492,-0.92125 6.89707,-4.1756 8.37847,-4.51721z"
                  fill="#0074b5"/>
            <path d="M91.95381,71.49759c1.51875,0.17476 6.75923,3.45884 8.35884,4.382l12.34658,7.12584l13.44844,7.76467c2.35034,1.3572 4.70259,2.70209 7.04194,4.08653c1.0021,0.59298 1.59771,1.60373 1.41006,2.79526c-0.16787,0.62096 -0.97456,1.38254 -1.46675,1.71023c-1.68984,1.12531 -3.56191,2.1387 -5.31519,3.14521l-9.98687,5.75868c-1.75063,0.89313 -4.32495,2.4913 -6.08511,3.50835l-12.18706,7.04131c-1.99922,1.15519 -3.94658,2.31419 -6.01055,3.43452c-1.29316,0.70182 -2.87681,0.47227 -3.59604,-0.97223c-0.18867,-0.54698 -0.27217,-1.37946 -0.271,-1.95149c0.02754,-14.87908 -0.02417,-29.75874 0.01685,-44.63752c0.00542,-1.99178 0.398,-2.59999 2.29585,-3.19136z"
                  fill="#0074b5"/>
            <path d="M178.3418,54.46018l10.68311,0.00161c1.11621,6.17602 3.22266,12.3327 4.16602,18.82689c1.09424,-6.17851 3.37207,-12.7603 4.80176,-18.8263c3.4541,-0.03648 6.97266,-0.00264 10.43115,-0.00308c0.15381,9.59853 1.05322,19.8353 1.3916,29.53828c-2.51953,0.03223 -5.0918,0.00864 -7.61719,0.01245c-0.22266,-6.02001 -0.5625,-12.83163 -0.51855,-18.80536c0.01318,-1.16325 0.04248,-2.2638 -0.06592,-3.42588c-1.84131,7.32916 -3.96826,14.33092 -5.91504,21.59065l-6.2168,0.00366c-1.27002,-5.34588 -2.59863,-10.70568 -3.67676,-16.09272c-0.37354,-1.86067 -0.72363,-3.71988 -1.12646,-5.57484c-0.18604,7.43024 -0.46582,14.85784 -0.83936,22.28104c-2.41113,0.0312 -4.8208,0.03091 -7.23047,-0.00103c0,-2.52162 0.33691,-5.87294 0.47021,-8.46839c0.36035,-6.98682 1.00342,-14.06871 1.2627,-21.057z"
                  fill="#0074b5"/>
            <path d="M221.29248,54.26711c2.41113,-0.25972 5.9458,0.0709 8.36719,0.62887c4.12646,0.95099 6.99316,4.37072 5.81982,8.74217c-0.61084,2.27464 -2.40967,3.33579 -4.3667,4.41261c7.31836,2.37045 7.34619,10.61852 1.01953,14.42673c-4.80762,2.31244 -13.14844,2.04481 -18.47021,1.41272c-0.02637,-9.65434 0.09961,-19.40932 -0.0249,-29.05253c2.48877,-0.32842 5.15186,-0.46187 7.65527,-0.57057z"
                  fill="#0074b5"/>
            <path d="M221.54297,71.41468c2.01563,-0.06006 4.44141,0.00015 6.02637,1.43059c1.58203,1.42854 0.93311,3.25508 -0.37354,4.62136c-1.78711,1.18039 -3.68848,1.06715 -5.73193,0.9838c-0.03223,-1.17424 -0.24316,-6.07685 0.0791,-7.03575z"
                  fill="#ffffff"/>
            <path d="M221.41992,60.12306c0.73975,-0.05523 1.48096,-0.08262 2.22363,-0.08203c1.89404,0.00044 4.27148,0.43609 4.15283,2.81225c-0.04541,0.92433 -0.30908,1.32351 -0.95654,1.95633c-1.85889,1.0799 -3.31494,0.97926 -5.40088,0.98849c-0.03955,-1.89143 -0.04687,-3.78345 -0.01904,-5.67503z"
                  fill="#ffffff"/>
            <path d="M239.94141,54.45945l19.03125,0.00044l-0.01465,6.62148l-11.13135,0.00952l-0.00293,4.5944l10.54541,0.01084c0.01025,2.14002 0.00732,4.28004 -0.00879,6.42007c-3.39844,0.08731 -7.11182,0.01802 -10.53516,0.02007l-0.00586,2.05916l0.00439,3.26123c3.84229,0.07793 7.8999,0.01597 11.75977,0.01963l-0.00732,6.50752c-6.25342,0.17534 -13.31836,0.03779 -19.62744,0.01187z"
                  fill="#0074b5"/>
            <path d="M247.68457,94.08025c1.65088,-0.23262 3.59619,0.13242 5.01563,1.009c1.35498,0.82867 2.31738,2.16932 2.66895,3.71797c0.33545,1.52317 0.03955,3.11738 -0.82031,4.41862c-1.1543,1.73147 -2.74951,2.34291 -4.67871,2.70736c-9.18604,0.90045 -11.23242,-10.11255 -2.18555,-11.85296z"
                  fill="#000000"/>
            <path d="M247.83252,95.67431c2.50635,-0.08364 4.92334,0.63077 5.61475,3.37959c0.26953,1.06877 0.09668,2.20125 -0.47754,3.14155c-0.83643,1.37419 -2.0332,1.86082 -3.49512,2.21385c-2.36133,0.32374 -4.89551,-0.93327 -5.51514,-3.3481c-0.28418,-1.07887 -0.11719,-2.22645 0.45996,-3.18096c0.81299,-1.35573 1.97314,-1.84427 3.41309,-2.20594z"
                  fill="#ffffff"/>
            <path d="M258.87451,94.15583c2.09766,-0.03164 5.63232,-0.24229 7.49854,0.38936c3.79834,1.28571 3.91992,5.75033 0.15967,7.44591c0.49805,0.70533 2.76123,3.16821 2.62646,3.85069l-0.49805,0.07778c-0.14355,0.00439 -0.82617,0.0126 -0.90527,-0.01494c-0.93311,-0.32784 -2.54736,-2.80654 -3.13184,-3.57574l-3.78076,-0.00747l-0.02197,3.56988l-1.96436,0.00703z"
                  fill="#000000"/>
            <path d="M260.84766,95.78051c1.8252,-0.02344 4.23779,-0.27041 5.79053,0.8713c1.20117,0.88258 0.72803,2.39374 -0.0835,3.40874c-1.79883,1.0714 -3.66797,0.8483 -5.72168,0.81989c-0.01025,-1.69998 -0.00586,-3.4001 0.01465,-5.09993z"
                  fill="#ffffff"/>
            <path d="M152.69824,46.93209c0.34131,0.00483 0.62256,0.02886 0.95801,0.05933c0.05566,0.06914 0.12305,0.15279 0.20215,0.25093c0.03516,4.21017 0.02051,10.09439 0.02051,14.10255l-0.00879,51.93329c-0.40869,0.00923 -0.59326,0.01509 -1.00928,-0.0479c-0.24316,-0.30865 -0.26367,-61.66776 -0.1626,-66.2982z"
                  fill="#0074b5"/>
            <path d="M223.29492,94.09431l0.61084,0.05523c0.47607,0.22705 5.35107,10.32803 6.06006,11.73797l-2.05811,0.01348c-0.48047,-0.98131 -0.95361,-1.96658 -1.41797,-2.95581l-3.3208,-0.00205l-3.29736,-0.00557l-1.40039,2.96796l-2.01709,-0.00146c0.41309,-0.96989 0.95947,-2.02796 1.44727,-2.97382c1.45313,-2.81928 2.73779,-5.73422 4.23926,-8.52449c0.16406,-0.30616 0.83057,-0.27979 1.1543,-0.31143z"
                  fill="#000000"/>
            <path d="M223.07373,96.30831c0.52881,0.30748 2.28662,4.30202 2.69824,5.17361l-2.5415,0.02417l-2.66309,-0.01641z"
                  fill="#ffffff"/>
            <path d="M168.44385,94.15188c1.87793,-0.01099 7.45459,-0.14517 8.92236,0.06856c0.22705,0.36241 0.15674,1.08224 0.15381,1.54924l-7.13965,0.01274l-0.00732,3.3708c1.01953,-0.0022 5.87695,-0.20801 6.29883,0.29956c0.03662,0.3898 0.06299,0.496 -0.04834,0.86793c-0.79395,0.60455 -4.34326,0.36519 -5.56641,0.34996c-0.38232,0.00571 -0.25195,-0.04351 -0.56836,0.14063c-0.26953,0.72027 -0.14062,2.70854 -0.11865,3.5438c1.36523,0.01655 6.15381,-0.14795 7.15723,0.10708c0.21973,0.36885 0.2373,0.98556 0.03223,1.35954c-1.68164,0.22779 -7.16309,0.08672 -9.13037,0.07734z"
                  fill="#000000"/>
            <path d="M192.77637,94.15495c2.66455,-0.02564 5.55615,-0.10137 8.22363,-0.00674c0.46582,0.01655 0.62695,0.05347 0.85693,0.35098c0.03369,0.57642 0.11133,0.50977 -0.11865,0.97077c-0.90234,0.54493 -5.66895,0.3233 -7.03711,0.32007l0.00586,3.35615c1.25391,0.03062 5.69385,-0.22837 6.33398,0.2814c0.04688,0.37867 0.08643,0.52882 -0.03076,0.89782c-0.74414,0.59225 -4.31104,0.36065 -5.49023,0.34937l-0.54932,0.03135c-0.52295,0.61495 -0.29004,2.71645 -0.271,3.64708c1.68311,0.04263 5.69678,-0.15762 7.12207,0.06123l0.16699,0.26162c0.00879,0.52428 0.10693,0.7588 -0.1333,1.13849c-1.41504,0.22896 -7.30518,0.09273 -9.07764,0.0832z"
                  fill="#000000"/>
            <path d="M203.50488,94.16579c0.67969,-0.03003 1.41797,-0.01553 2.10352,-0.01553c1.25684,2.89677 3.08057,6.59014 4.52637,9.40297c1.42969,-3.09467 3.05859,-6.31855 4.5542,-9.39916l1.95557,-0.01523l-0.9126,1.90843c-1.56152,3.29258 -3.14209,6.57593 -4.7417,9.85005l-1.83105,0.00688c-1.70654,-3.14375 -4.15723,-8.46033 -5.6543,-11.73841z"
                  fill="#000000"/>
            <path d="M229.91748,94.15949c1.396,-0.01157 9.97559,-0.25987 10.60693,0.24742c0.04395,0.46451 0.09375,0.63385 -0.14795,1.04753c-0.76025,0.60938 -3.09521,0.33575 -4.22607,0.32696l-0.00439,5.80702l0.00293,4.31154l-1.83545,0.00088l-0.01172,-10.11079l-4.40186,-0.01187z"
                  fill="#000000"/>
            <path d="M181.33301,94.15466l1.91162,-0.0145l0.00586,10.21319c1.38281,0.00161 5.58691,-0.08569 6.72217,0.09873c0.21094,0.30015 0.14502,1.03332 0.14355,1.44201l-8.78613,0.00352z"
                  fill="#000000"/>
        </g>
    </svg>
</svg>
